HIERARCHY
ROOT Hips
{
	OFFSET 0.000000 8.830580 0.000000
	CHANNELS 6 Xposition Yposition Zposition Zrotation Yrotation Xrotation 
	JOINT Spine
	{
		OFFSET 0.000000 0.010000 0.000000
		CHANNELS 3 Zrotation Yrotation Xrotation
		JOINT Spine1
		{
			OFFSET 0.000000 2.459130 0.000000
			CHANNELS 3 Zrotation Yrotation Xrotation
			JOINT Neck
			{
				OFFSET 0.000000 2.484630 0.000000
				CHANNELS 3 Zrotation Yrotation Xrotation
				JOINT Head_virtual
				{
					OFFSET 0.000000 0.000000 0.000000
					CHANNELS 3 Zrotation Yrotation Xrotation
					JOINT Head
					{
						OFFSET 0.000000 0.927525 0.000000
						CHANNELS 3 Zrotation Yrotation Xrotation
						End Site
						{
							OFFSET 0.000000 0.000000 0.000000
						}
					}
				}
				JOINT LeftUpArm_virtual
				{
					OFFSET 0.000000 0.000000 0.000000
					CHANNELS 3 Zrotation Yrotation Xrotation
					JOINT LeftUpArm
					{
						OFFSET 1.248820 0.000000 0.000000
						CHANNELS 3 Zrotation Yrotation Xrotation
						JOINT LeftForeArm
						{
							OFFSET 2.597580 0.000000 0.000000
							CHANNELS 3 Zrotation Yrotation Xrotation
							JOINT LeftHand
							{
								OFFSET 2.455420 0.000000 0.000000
								CHANNELS 3 Zrotation Yrotation Xrotation
								End Site
								{
									OFFSET 0.000000 0.000000 0.000000
								}
							}
						}
					}
				}
				JOINT RightUpArm_virtual
				{
					OFFSET -0.000000 -0.000000 -0.000000
					CHANNELS 3 Zrotation Yrotation Xrotation
					JOINT RightUpArm
					{
						OFFSET -1.248820 -0.000000 -0.000000
						CHANNELS 3 Zrotation Yrotation Xrotation
						JOINT RightForeArm
						{
							OFFSET -2.597580 -0.000000 -0.000000
							CHANNELS 3 Zrotation Yrotation Xrotation
							JOINT RightHand
							{
								OFFSET -2.455420 -0.000000 -0.000000
								CHANNELS 3 Zrotation Yrotation Xrotation
								End Site
								{
									OFFSET 0.000000 0.000000 0.000000
								}
							}
						}
					}
				}
			}
		}
	}
	JOINT LeftUpLeg
	{
		OFFSET 1.271939 0.000000 0.000000
		CHANNELS 3 Zrotation Yrotation Xrotation
		JOINT LeftLowLeg
		{
			OFFSET 0.000000 -4.342910 0.000000
			CHANNELS 3 Zrotation Yrotation Xrotation
			JOINT LeftFoot
			{
				OFFSET 0.000000 -4.487670 0.000000
				CHANNELS 3 Zrotation Yrotation Xrotation
				JOINT LeftToeBase
				{
					OFFSET 0.000000 0.000000 1.515070
					CHANNELS 3 Zrotation Yrotation Xrotation
					End Site
					{
						OFFSET 0.000000 0.000000 0.000000
					}
				}
			}
		}
	}
	JOINT RightUpLeg
	{
		OFFSET -1.271939 0.000000 0.000000
		CHANNELS 3 Zrotation Yrotation Xrotation
		JOINT RightLowLeg
		{
			OFFSET 0.000000 -4.342910 0.000000
			CHANNELS 3 Zrotation Yrotation Xrotation
			JOINT RightFoot
			{
				OFFSET 0.000000 -4.487670 0.000000
				CHANNELS 3 Zrotation Yrotation Xrotation
				JOINT RightToeBase
				{
					OFFSET 0.000000 0.000000 1.515070
					CHANNELS 3 Zrotation Yrotation Xrotation
					End Site
					{
						OFFSET 0.000000 0.000000 0.000000
					}
				}
			}
		}
	}
}
MOTION
Frames: 13
Frame Time: 0.041667
-29.251107 8.676938 39.483004 4.375980 -13.752255 12.706895 -10.666081 17.582008 -21.118671 -1.270940 -18.197765 10.045262 0.000000 0.000000 0.000000 15.314834 42.854129 12.412098 -11.954667 -41.518609 -78.229134 -21.653799 4.411350 7.562988 -49.790298 -19.633301 9.736620 0.000000 -18.876801 0.000000 27.113400 11.398500 -24.874201 26.180300 -12.390200 0.356995 50.908298 -2.864210 6.362180 0.000000 25.005600 0.000000 -1.455860 -7.943850 -10.860000 -14.284313 -7.569980 -9.723656 0.000000 0.000000 13.644100 -8.856505 9.291467 -5.580748 0.000000 0.000000 -17.920470 -5.830647 8.384342 -46.874687 0.000000 0.000000 55.385700 33.834955 -5.657027 -2.980429 0.000000 0.000000 -18.788610 
-29.275044 8.664835 39.595463 4.393835 -13.231796 13.238532 -10.842024 17.523663 -21.095709 -1.404602 -18.107168 10.019339 0.000000 0.000000 0.000000 15.634322 42.475711 11.657427 -11.772227 -41.169286 -78.583453 -21.598400 4.197680 7.920013 -49.417599 -20.618401 9.777400 0.000000 -18.809500 0.000000 27.227501 11.449200 -24.326799 26.200300 -12.509200 0.144012 51.392799 -3.402280 6.280000 0.000000 24.091299 0.000000 -1.157250 -8.158000 -10.912200 -14.229875 -7.839184 -9.455120 0.000000 0.000000 13.658100 -8.820840 8.957144 -5.919035 0.000000 0.000000 -18.293200 -6.949273 9.933786 -47.814772 0.000000 0.000000 49.902000 34.458614 -3.985039 -2.759377 0.000000 0.000000 -18.252890 
-29.297576 8.651373 39.712845 4.402407 -12.758273 13.929286 -11.017699 17.563695 -21.344967 -1.648783 -18.012846 10.125138 0.000000 0.000000 0.000000 15.904052 42.103577 10.912120 -11.538141 -40.910854 -79.039690 -21.691700 3.920220 8.023987 -48.955101 -21.288900 9.799690 0.000000 -18.651199 0.000000 26.978500 11.252600 -24.733500 26.183399 -12.546700 -0.160004 51.913799 -3.995230 6.271660 0.000000 22.945499 0.000000 -0.635683 -8.269430 -10.997500 -14.171515 -8.035319 -9.332684 0.000000 0.000000 13.730600 -8.952275 8.470454 -6.312634 0.000000 0.000000 -18.212790 -8.077523 11.325460 -48.497334 0.000000 0.000000 43.807899 35.047723 -2.391546 -2.909736 0.000000 0.000000 -17.729050 
-29.317542 8.636546 39.836581 4.373172 -12.224970 14.518567 -11.029750 17.732760 -21.541311 -2.018002 -17.964244 10.310352 0.000000 0.000000 0.000000 16.124445 41.674128 10.116257 -11.384604 -40.696566 -79.453066 -21.863701 3.647540 8.080994 -48.452499 -21.807899 9.888160 0.000000 -18.531601 0.000000 26.910999 11.389400 -24.097700 26.215000 -12.540400 -0.385986 52.341999 -4.546540 6.135990 0.000000 21.823200 0.000000 0.203482 -8.624440 -11.136800 -14.099020 -7.925809 -9.103692 0.000000 0.000000 13.824900 -8.732585 7.831565 -6.642632 0.000000 0.000000 -18.163080 -9.195401 12.595000 -48.641914 0.000000 0.000000 37.363602 36.486844 -0.306236 -3.334547 0.000000 0.000000 -16.875600 
-29.337205 8.626184 39.977958 4.039796 -11.559837 13.688607 -10.356012 18.286351 -20.793846 -2.510578 -17.960744 11.197619 0.000000 0.000000 0.000000 16.486810 41.204887 9.475886 -11.389687 -40.554143 -80.076070 -22.217699 3.104930 9.417999 -47.322300 -23.060699 9.059710 0.000000 -18.451000 0.000000 26.835400 11.211600 -23.719900 26.505301 -12.301600 0.606995 52.479198 -4.126310 5.603430 0.000000 20.709900 0.000000 0.823668 -8.501210 -11.478900 -13.929440 -7.387704 -7.344218 0.000000 0.000000 13.981300 -8.625512 7.052178 -6.950740 0.000000 0.000000 -18.316920 -9.481560 13.811140 -46.524559 0.000000 0.000000 30.313801 38.049831 1.797502 -3.603075 0.000000 0.000000 -16.914330 
-29.354793 8.612411 40.119989 3.726613 -10.753315 13.937740 -9.998615 18.665897 -20.995408 -2.888425 -18.036169 11.805224 0.000000 0.000000 0.000000 16.694472 40.791505 8.856483 -11.270368 -40.569584 -80.816544 -22.544201 2.747240 9.667999 -46.774502 -23.535999 8.730530 0.000000 -18.232901 0.000000 26.553101 11.010400 -23.769199 26.685699 -12.166300 0.506012 52.591099 -4.539530 5.400730 0.000000 19.608000 0.000000 1.988040 -8.889310 -11.602700 -13.601121 -7.064160 -6.778514 0.000000 0.000000 14.420500 -8.404275 6.199439 -7.320844 0.000000 0.000000 -18.322250 -10.288797 15.026777 -45.164323 0.000000 0.000000 23.093201 40.720865 3.836544 -3.783691 0.000000 0.000000 -16.518230 
-29.375046 8.599067 40.271269 3.317542 -9.803595 14.199827 -9.643407 19.029503 -21.357427 -3.126435 -18.125824 12.464649 0.000000 0.000000 0.000000 16.941065 40.294186 8.344040 -11.265328 -40.659182 -81.493298 -22.910200 2.392790 9.962006 -46.292801 -23.951300 8.499830 0.000000 -18.035400 0.000000 26.296101 10.991100 -23.630600 26.952101 -12.018000 0.410004 52.493599 -4.993540 5.304560 0.000000 18.652300 0.000000 2.965130 -9.270620 -11.307800 -13.114569 -6.799797 -6.180049 0.000000 0.000000 14.919100 -8.298026 5.183744 -7.687028 0.000000 0.000000 -18.657520 -10.297767 15.486433 -43.435283 0.000000 0.000000 16.720501 43.139293 5.629092 -3.938322 0.000000 0.000000 -15.925966 
-29.404190 8.582592 40.432606 3.062619 -8.791260 15.230152 -9.803535 19.118724 -22.328934 -3.068578 -18.092337 12.537099 0.000000 0.000000 0.000000 17.333749 39.626295 7.945045 -11.463201 -40.765600 -82.001890 -23.221901 2.303290 9.134003 -46.436901 -23.433500 9.260960 0.000000 -17.983801 0.000000 25.992001 11.530900 -23.116600 27.236000 -12.214800 -0.737000 52.200802 -6.319430 5.685510 0.000000 17.801399 0.000000 3.838660 -9.740790 -11.050500 -12.590301 -6.858630 -6.275588 0.000000 0.000000 15.369600 -8.198150 4.244333 -8.022847 0.000000 0.000000 -18.941060 -9.519757 14.807561 -42.617085 0.000000 0.000000 13.028300 44.392555 7.175430 -4.442865 0.000000 0.000000 -15.132617 
-29.439233 8.557566 40.579984 3.261727 -8.103349 16.115418 -10.219741 19.209452 -22.325005 -2.852006 -17.725374 11.107328 0.000000 0.000000 0.000000 17.713675 39.171856 8.098068 -11.172720 -40.989977 -82.282302 -23.160000 2.401530 9.415985 -46.779800 -23.354700 9.777690 0.000000 -17.239799 0.000000 25.412100 9.829240 -23.594400 27.307800 -12.641300 -0.125000 52.039501 -6.554950 5.581970 0.000000 16.988100 0.000000 4.455150 -10.035100 -10.747700 -12.476816 -7.070160 -6.520342 0.000000 0.000000 16.114100 -8.349482 3.535492 -8.370344 0.000000 0.000000 -19.353140 -10.172237 15.536325 -44.044578 0.000000 0.000000 15.091500 45.438700 7.116110 -5.053225 0.000000 0.000000 -15.246602 
-29.478457 8.534810 40.739092 3.589872 -7.339390 16.746611 -11.343193 18.347266 -23.637815 -1.874391 -17.394423 12.218907 0.000000 0.000000 0.000000 16.223770 39.098505 6.196235 -11.152292 -40.898070 -81.618084 -23.032200 2.445550 8.102997 -47.871899 -22.816200 9.892840 0.000000 -16.858200 0.000000 24.874500 9.355240 -22.446100 26.863800 -12.035500 -0.217987 52.178001 -6.683510 5.870020 0.000000 16.424500 0.000000 4.697260 -10.473600 -10.853900 -12.468982 -7.511226 -6.411110 0.000000 0.000000 16.768299 -8.667876 2.930679 -8.425799 0.000000 0.000000 -20.013380 -10.922603 16.418234 -46.035690 0.000000 0.000000 20.302200 44.471504 5.953321 -4.977009 0.000000 0.000000 -15.884641 
-29.516546 8.514633 40.916532 3.745586 -6.554778 17.245612 -11.747977 18.143685 -23.989899 -1.664121 -17.234463 11.637111 0.000000 0.000000 0.000000 16.221771 38.875071 6.155440 -11.196506 -40.922288 -81.262499 -22.861000 2.638640 8.309998 -48.268501 -22.236000 10.558700 0.000000 -17.011400 0.000000 24.743700 9.383750 -23.205099 26.774700 -12.132800 0.342987 52.047001 -6.776620 6.472860 0.000000 15.784200 0.000000 4.622830 -10.589000 -10.963600 -12.373502 -7.799564 -5.967312 0.000000 0.000000 17.254400 -9.447897 2.361322 -8.341333 0.000000 0.000000 -20.802110 -10.605849 16.522311 -46.898623 0.000000 0.000000 24.661800 41.519339 5.291684 -5.163164 0.000000 0.000000 -16.707920 
-29.552534 8.510757 41.107313 3.251533 -5.630481 17.719331 -11.618583 18.255297 -24.702742 -1.553441 -17.454079 11.452332 0.000000 0.000000 0.000000 16.580175 38.767558 6.864536 -11.398210 -41.152232 -81.327479 -23.137600 2.756310 8.686005 -48.011101 -21.560301 11.237300 0.000000 -17.071301 0.000000 24.562500 9.912690 -23.042101 27.012400 -12.090400 0.329987 51.554100 -7.152530 6.937580 0.000000 15.268200 0.000000 4.438860 -10.937400 -10.787500 -11.647603 -7.790550 -5.366949 0.000000 0.000000 17.666300 -9.161939 2.261262 -7.931517 0.000000 0.000000 -22.046620 -9.009400 15.943047 -46.043803 0.000000 0.000000 24.984301 39.144554 5.608656 -5.070537 0.000000 0.000000 -15.766110 
-29.593427 8.521801 41.312875 2.290327 -4.483262 18.148703 -11.238077 18.533895 -25.695296 -1.383827 -17.861126 11.473034 0.000000 0.000000 0.000000 17.114028 38.634655 7.799284 -11.542923 -41.407277 -81.445086 -23.659800 2.872430 8.992004 -47.505600 -20.860901 11.426900 0.000000 -16.817499 0.000000 24.273199 9.313280 -22.877300 27.542200 -12.186100 0.018005 50.823002 -7.582990 7.141190 0.000000 14.833700 0.000000 4.045070 -11.003100 -11.114600 -10.338925 -7.424070 -4.729477 0.000000 0.000000 18.196100 -10.315036 1.051010 -7.455861 0.000000 0.000000 -22.709220 -8.211445 17.016043 -44.313027 0.000000 0.000000 22.760799 41.104880 4.248747 -2.744949 0.000000 0.000000 -14.503407 
